<svg width="100" height="100" viewBox="0 0 100 100" fill="none" xmlns="http://www.w3.org/2000/svg">
	<rect width="100" height="100" fill="#281246" />
	<path d="M69.2579 28.521L51.5408 50.241C50.828 51.1168 49.679 51.5513 48.5356 51.3775L20.8797 46.8165C18.9026 46.4865 17.6545 44.4328 18.3683 42.58C18.855 41.2846 19.5264 40.1214 20.3459 39.1716L32.9722 24.2937C35.6657 21.0861 41.2048 18.9914 45.3467 19.614L64.6583 22.4138C65.9012 22.5836 67.1855 23.0409 68.3965 23.6606C70.0987 24.5997 70.5219 26.9654 69.2579 28.521Z" fill="url(#paint0_linear_1410_411)" />
	<path d="M50.4312 56.9215L58.0302 77.0153C58.877 79.2545 57.1655 81.5856 54.7943 81.371C47.5995 80.6905 35.27 78.9884 35.27 78.9884C30.9067 78.3148 26.0217 74.3024 24.4283 70.0892L18.679 54.8863C17.7987 52.5587 19.687 50.1607 22.1251 50.5521L47.9553 54.827C49.0509 55.0525 50.019 55.8314 50.4312 56.9215Z" fill="url(#paint1_linear_1410_411)" />
	<path d="M53.7901 55.6567L61.3891 75.7505C62.2359 77.9897 65.0616 78.6049 66.6974 76.875C71.6414 71.6039 79.7592 62.169 79.7592 62.169C82.5849 58.7767 83.5925 52.536 81.9992 48.3228L76.2498 33.1198C75.3695 30.7923 72.367 30.2439 70.7981 32.1506L54.2604 52.4479C53.5883 53.342 53.3778 54.5666 53.7901 55.6567Z" fill="url(#paint2_linear_1410_411)" />
	<defs>
		<linearGradient id="paint0_linear_1410_411" x1="38.5934" y1="20.5261" x2="50.1952" y2="51.2045" gradientUnits="userSpaceOnUse">
			<stop stop-color="#01D8E2" />
			<stop offset="1" stop-color="#784ED3" />
		</linearGradient>
		<linearGradient id="paint1_linear_1410_411" x1="31.0784" y1="46.7105" x2="45.6287" y2="85.1855" gradientUnits="userSpaceOnUse">
			<stop stop-color="#01D8E2" />
			<stop offset="1" stop-color="#784ED3" />
		</linearGradient>
		<linearGradient id="paint2_linear_1410_411" x1="61.5432" y1="35.1949" x2="76.0935" y2="73.6699" gradientUnits="userSpaceOnUse">
			<stop stop-color="#01D8E2" />
			<stop offset="1" stop-color="#784ED3" />
		</linearGradient>
	</defs>
</svg>
